<?xml version="1.0" encoding="UTF-8"?>
<svg version="1.1" xmlns="http://www.w3.org/2000/svg" width="1024" height="1024">
<path d="M0 0 C337.92 0 675.84 0 1024 0 C1024 337.92 1024 675.84 1024 1024 C686.08 1024 348.16 1024 0 1024 C0 686.08 0 348.16 0 0 Z " fill="#BDE5F8" transform="translate(0,0)"/>
<path d="M0 0 C337.92 0 675.84 0 1024 0 C1024 337.92 1024 675.84 1024 1024 C686.08 1024 348.16 1024 0 1024 C0 686.08 0 348.16 0 0 Z M297.80932617 103.4597168 C296.85301194 103.47986961 295.8966977 103.50002242 294.91140425 103.52078593 C246.14210425 104.59552466 201.83304146 112.56704825 163 144 C162.3704541 144.50853516 161.7409082 145.01707031 161.09228516 145.54101562 C153.39965621 151.81306844 146.32144984 158.31237601 140 166 C139.21367187 166.9384375 138.42734375 167.876875 137.6171875 168.84375 C126.44302701 182.71512165 118.02880562 198.26632921 112 215 C111.76587402 215.639375 111.53174805 216.27875 111.29052734 216.9375 C97.0733609 256.49831098 99.84385063 301.34953146 99.85461628 342.77813435 C99.85482355 347.77364684 99.84927105 352.76915387 99.84455872 357.7646637 C99.83632127 367.51393546 99.83350704 377.26320117 99.83294634 387.01247613 C99.8324679 394.95246221 99.83039702 402.89244633 99.82724571 410.83243179 C99.81845831 433.43958374 99.81382338 456.04673097 99.81457619 478.65388463 C99.81461614 479.86767302 99.8146561 481.0814614 99.81469727 482.33203125 C99.81473815 483.54733454 99.81477903 484.76263783 99.81482115 486.0147685 C99.81522716 505.68759801 99.80566377 525.36040834 99.7915589 545.03323232 C99.7771258 565.32706629 99.77029249 585.62089096 99.77115268 605.91473019 C99.77148224 617.27042079 99.76884183 628.62609127 99.75797462 639.98177719 C99.74877776 649.65245388 99.74676848 659.32310133 99.75348405 668.99378054 C99.75670356 673.90794984 99.75697632 678.82206337 99.7481308 683.73622704 C99.71628792 702.68123826 99.90289643 721.57525828 100.8901825 740.49783325 C100.92904707 741.26015243 100.96791164 742.0224716 101.00795392 742.80789135 C101.78117913 757.56753172 102.78075069 772.52324652 106.1875 786.9375 C106.50787231 788.31071411 106.50787231 788.31071411 106.8347168 789.71166992 C111.90209295 810.51467708 120.69899812 830.47643081 133 848 C134.06927734 849.546875 134.06927734 849.546875 135.16015625 851.125 C146.26403653 866.36188546 160.18871984 879.74526629 176 890 C176.73911621 890.48662109 177.47823242 890.97324219 178.23974609 891.47460938 C201.50089627 906.62676416 225.6790842 914.38350494 253 918 C254.12315613 918.16012573 255.24631226 918.32025146 256.40350342 918.48522949 C270.48084604 920.35915086 284.59615258 920.45134157 298.77477884 920.59363031 C301.10781888 920.61773648 303.44080389 920.64503085 305.7737999 920.67306137 C359.49581163 921.30900487 413.22844015 921.15055451 466.9534404 921.12946293 C478.42322813 921.12503855 489.89300544 921.12578524 501.36279297 921.13037109 C564.25715081 921.15469986 627.15048862 921.09550689 690.04347372 920.64437628 C693.94058362 920.61754282 697.83770034 920.5939462 701.73483658 920.57129288 C707.80334777 920.53543918 713.8717144 920.48998958 719.94010019 920.43707705 C722.12891604 920.4192643 724.31775811 920.40435386 726.50661612 920.39283323 C779.12370816 920.10330073 830.54394099 909.16741238 869.52783203 871.42089844 C871.0138435 869.98663861 872.51960083 868.57542224 874.02734375 867.1640625 C910.1627179 832.80469614 920.60041249 784.23247644 923.06976318 736.33210754 C923.11326722 735.49327842 923.15677126 734.65444929 923.20159361 733.79020111 C924.1883405 714.29163778 924.28790394 694.81401611 924.26144934 675.2947067 C924.256821 670.21288974 924.26395847 665.13108495 924.26940918 660.04927063 C924.27819601 650.15511706 924.27643009 640.26099421 924.2705839 630.36683955 C924.26602578 622.31218732 924.26547218 614.25754356 924.26763153 606.2028904 C924.267938 605.04678864 924.26824446 603.89068688 924.26856022 602.69955174 C924.2691998 600.34939243 924.26984823 597.99923312 924.2705054 595.64907382 C924.27617696 573.73176985 924.2697004 551.81448275 924.25890467 529.89718155 C924.24996609 511.17159894 924.25152993 492.44604115 924.26074219 473.72045898 C924.27149104 451.8618928 924.27563415 430.00334129 924.26951766 408.14477283 C924.2688807 405.80585881 924.26825195 403.4669448 924.26763153 401.12803078 C924.26732298 399.97786498 924.26701443 398.82769918 924.26669653 397.64267987 C924.26498381 389.61360165 924.26785347 381.58453291 924.27259064 373.55545616 C924.27825088 363.74841902 924.27657637 353.94141381 924.26602915 344.13438024 C924.26084153 339.14974839 924.25859458 334.16516941 924.26532745 329.18053818 C924.28811698 310.74595325 924.16451242 292.36499988 923.06585693 273.95832825 C923.0240831 273.25454348 922.98230928 272.55075872 922.93926957 271.82564714 C922.31945122 261.67489551 921.27188626 251.91459136 919 242 C918.68047385 240.40270631 918.36288543 238.80502421 918.046875 237.20703125 C913.93099804 217.35541945 906.65668233 197.69233245 895 181 C894.31550781 180.01314209 894.31550781 180.01314209 893.6171875 179.00634766 C887.15286074 169.80029942 880.17906329 161.71390329 872 154 C871.23558594 153.22011719 870.47117187 152.44023437 869.68359375 151.63671875 C863.77998137 145.83622624 857.5905964 140.75082635 850.6875 136.1875 C849.52951904 135.42155518 849.52951904 135.42155518 848.34814453 134.64013672 C799.58413103 102.95974657 743.22601095 102.64635709 686.97636402 102.75320971 C682.22959157 102.75994163 677.48282741 102.75480526 672.73605347 102.75132751 C663.48817025 102.74634592 654.24032347 102.75185132 644.99244479 102.76117782 C634.15847525 102.77169951 623.32451302 102.77148796 612.49053933 102.77100524 C593.11339563 102.77050708 573.73626856 102.77959564 554.35913086 102.79418945 C535.68464861 102.80824621 517.01018098 102.81536104 498.33569336 102.81469727 C497.18701892 102.81465731 496.03834447 102.81461735 494.85486171 102.81457619 C493.70790729 102.81453583 492.56095286 102.81449548 491.37924224 102.8144539 C469.94989898 102.81375803 448.52056177 102.8196915 427.0912205 102.82860712 C420.64969774 102.83116476 414.20817606 102.83254301 407.76665281 102.83293809 C352.78489062 102.76053339 352.78489062 102.76053339 297.80932617 103.4597168 Z " fill="#F4F8FC" transform="translate(0,0)"/>
<path d="M0 0 C1.53138875 -0.00551503 1.53138875 -0.00551503 3.09371465 -0.01114148 C6.5134449 -0.02215125 9.93314472 -0.02601758 13.35289001 -0.02983093 C15.80555823 -0.03609763 18.25822549 -0.04274461 20.71089172 -0.04974365 C28.06928741 -0.06894737 35.42767501 -0.07956819 42.78608838 -0.08847144 C46.2566489 -0.09286151 49.72720792 -0.09822642 53.19776726 -0.10346031 C64.74359476 -0.12046754 76.28942134 -0.13496019 87.83525944 -0.14220905 C90.82827824 -0.14411874 93.82129703 -0.14603911 96.8143158 -0.147995 C97.93007769 -0.14872061 97.93007769 -0.14872061 99.06838023 -0.14946087 C111.10963613 -0.15775565 123.15079251 -0.18308546 135.19200499 -0.21557567 C147.57154554 -0.24870483 159.95103561 -0.26666306 172.33062071 -0.26985329 C179.27439167 -0.27201291 186.21801748 -0.2806808 193.16174507 -0.30631447 C199.69775697 -0.33038827 206.23355551 -0.33381054 212.76961899 -0.32355309 C215.16204509 -0.32305869 217.55448421 -0.32935058 219.9468708 -0.34310913 C239.85802424 -0.45116609 256.0882539 1.55931293 271.21202087 15.95967102 C280.75825494 26.07194781 286.98783407 38.66432907 286.98419189 52.64668274 C286.98786858 53.40525794 286.99154527 54.16383314 286.99533337 54.94539547 C287.00635291 57.48922335 287.01021116 60.03301036 287.01402283 62.57685852 C287.02028895 64.40032073 287.02693588 66.22378167 287.03393555 68.04724121 C287.05496645 74.03887545 287.0653393 80.03050992 287.07530212 86.02217102 C287.0793505 88.08726515 287.08346745 90.15235915 287.08765221 92.217453 C287.10670435 101.92334974 287.12093348 111.62923888 287.12926418 121.33515072 C287.13902707 132.52406031 287.1653218 143.71277158 287.20576507 154.90161133 C287.23597696 163.55828515 287.25073799 172.21490231 287.25404519 180.87162781 C287.25639052 186.03751935 287.26528318 191.20319902 287.29050636 196.36903381 C287.31387992 201.2347861 287.31798313 206.10018844 287.30774498 210.96598244 C287.30725171 212.7444456 287.31351011 214.52292653 287.32730103 216.30133629 C287.42832047 230.10957248 285.40038595 241.27781933 277.83702087 253.14717102 C277.43096619 253.81232727 277.0249115 254.47748352 276.60655212 255.16279602 C268.6166631 267.06562189 255.5435207 273.38954317 241.8870697 276.32051086 C233.60232111 277.6697907 225.61787678 276.48538099 217.33756447 275.62697029 C166.78289837 269.98879439 166.78289837 269.98879439 121.29675293 287.9772644 C104.61040215 301.97569845 90.66741568 319.03473145 77.61911392 336.3858366 C74.13299142 340.9450836 70.35060546 344.63608006 65.83702087 348.14717102 C63.49174987 350.27419672 61.15125827 352.40597638 58.81748962 354.54560852 C54.27322383 358.22045857 48.38826689 357.71264945 42.83702087 357.14717102 C37.94515182 354.79182666 35.02623145 351.42982522 31.83702087 347.14717102 C30.71042568 343.76738544 30.71681105 341.21900966 30.72349548 337.65620422 C30.72334946 337.00227692 30.72320343 336.34834961 30.72305298 335.67460632 C30.72374899 333.51568776 30.73152679 331.35685574 30.73936462 329.19795227 C30.74122991 327.70008389 30.74265329 326.20221491 30.74365234 324.7043457 C30.74746881 320.76372084 30.75729167 316.82313288 30.76835632 312.88252258 C30.77858915 308.86071777 30.78315398 304.83890698 30.78819275 300.8170929 C30.79891472 292.92710012 30.81650448 285.03714441 30.83702087 277.14717102 C24.23702087 277.14717102 17.63702087 277.14717102 10.83702087 277.14717102 C10.85273132 279.91092102 10.86844177 282.67467102 10.8846283 285.52217102 C10.93460316 294.71021523 10.96758052 303.89826585 10.99245739 313.08641052 C11.00803409 318.65068319 11.02912429 324.21481521 11.06333923 329.77900696 C11.09622034 335.16069396 11.11393381 340.54224669 11.1216526 345.92402649 C11.12714498 347.96506358 11.13786823 350.00609432 11.15421104 352.04707336 C11.34172894 376.46281386 7.72725521 400.84088473 -10.16297913 419.14717102 C-10.82297913 419.14717102 -11.48297913 419.14717102 -12.16297913 419.14717102 C-12.49297913 420.13717102 -12.82297913 421.12717102 -13.16297913 422.14717102 C-27.58614103 434.44328076 -44.25890233 438.3065862 -62.730896 438.28761292 C-64.1119381 438.2920696 -64.1119381 438.2920696 -65.52088004 438.29661632 C-68.58347392 438.30523721 -71.64602841 438.30680592 -74.70863342 438.30830383 C-76.9138192 438.31293665 -79.11900417 438.31796193 -81.32418823 438.323349 C-87.29961104 438.33642931 -93.27502264 438.34290927 -99.25045753 438.34735966 C-102.98859605 438.35029712 -106.72673155 438.35440316 -110.46486855 438.35886383 C-122.17515013 438.37252652 -133.88542532 438.38221519 -145.59571427 438.38606572 C-146.94064566 438.38650917 -148.28557704 438.38695573 -149.63050842 438.3874054 C-150.63118404 438.38773754 -150.63118404 438.38773754 -151.65207533 438.38807639 C-162.45410869 438.39202182 -173.25607449 438.40947224 -184.05808177 438.43276492 C-195.17549683 438.45654228 -206.29288384 438.46868622 -217.41032535 438.47010684 C-223.64144567 438.4711522 -229.87247054 438.4770029 -236.10356712 438.49492645 C-241.96822385 438.51146901 -247.83271397 438.51353266 -253.69738579 438.50478745 C-255.84105629 438.50402041 -257.98473599 438.5083154 -260.12838364 438.5182457 C-274.37882972 438.58035114 -288.34035201 438.43896896 -301.28797913 431.64717102 C-301.95047668 431.30605286 -302.61297424 430.96493469 -303.29554749 430.61347961 C-319.8591856 421.63461161 -330.46584382 405.82287105 -335.80067444 388.01899719 C-337.26487932 382.18089987 -337.40232291 376.57892377 -337.28797913 370.58467102 C-337.27895569 369.67137024 -337.26993225 368.75806946 -337.26063538 367.8170929 C-337.23735166 365.59349783 -337.20465623 363.37048425 -337.16297913 361.14717102 C-338.418526 361.19357727 -339.67407288 361.23998352 -340.96766663 361.28779602 C-353.47459644 361.61636685 -362.86759388 361.09013836 -372.40516663 352.15107727 C-377.6919348 346.12416155 -380.26188488 339.78928803 -380.37171936 331.83076477 C-380.39100998 330.52510559 -380.4103006 329.21944641 -380.43017578 327.8742218 C-380.44499005 326.4443817 -380.45876235 325.01453048 -380.47157288 323.58467102 C-380.4781447 322.86197021 -380.48471653 322.13926941 -380.4914875 321.39466858 C-380.52407445 317.56300311 -380.54851718 313.73136519 -380.56800842 309.89961243 C-380.58575475 306.74522244 -380.62046515 303.59173776 -380.67054749 300.43769836 C-380.73116304 296.6150737 -380.76154084 292.79328188 -380.77118111 288.97019958 C-380.77967358 287.52224532 -380.79833621 286.07430952 -380.82792473 284.62663269 C-381.03116878 274.10915291 -379.54219015 265.84828153 -372.09069824 257.95088196 C-363.96356546 250.34655923 -356.03926817 248.96622462 -345.28797913 249.08467102 C-344.50422913 249.08918274 -343.72047913 249.09369446 -342.91297913 249.0983429 C-340.99627899 249.11003009 -339.07961864 249.12796194 -337.16297913 249.14717102 C-337.17868958 248.43810608 -337.19440002 247.72904114 -337.21058655 246.99848938 C-337.67473271 222.84134655 -336.04286461 201.83158769 -319.16297913 183.14717102 C-318.59450256 182.47556946 -318.026026 181.8039679 -317.44032288 181.11201477 C-307.81092459 170.50127653 -293.21841897 164.02651721 -279.16297913 162.14717102 C-275.7532058 162.00866489 -272.34711643 162.02074458 -268.93495178 162.03364563 C-267.91970428 162.0334996 -266.90445679 162.03335358 -265.85844421 162.03320312 C-262.51462135 162.03389781 -259.17085472 162.04166941 -255.82704163 162.04951477 C-253.50391165 162.05138053 -251.18078127 162.05280369 -248.85765076 162.05380249 C-242.75193693 162.05761524 -236.646247 162.06743493 -230.5405426 162.07850647 C-223.21000665 162.09054876 -215.8794627 162.09512875 -208.54891968 162.10095978 C-197.42025622 162.11064733 -186.29164517 162.12981262 -175.16297913 162.14717102 C-175.16297913 142.34717102 -175.16297913 122.54717102 -175.16297913 102.14717102 C-176.81297913 101.48717102 -178.46297913 100.82717102 -180.16297913 100.14717102 C-189.58084996 94.44926844 -194.86215062 86.52362164 -198.16297913 76.14717102 C-200.77291945 65.09842367 -198.92496689 55.57895656 -193.22547913 45.83467102 C-192.54485413 44.94779602 -191.86422913 44.06092102 -191.16297913 43.14717102 C-190.46172913 42.15717102 -189.76047913 41.16717102 -189.03797913 40.14717102 C-182.76877337 32.88708776 -173.47155034 29.34827698 -164.16297913 28.14717102 C-156.05080942 27.91919435 -149.20442993 29.08828685 -142.16297913 33.14717102 C-141.00475647 33.79879211 -141.00475647 33.79879211 -139.82313538 34.46357727 C-129.65421612 40.67321682 -125.70979045 49.03936893 -122.57313538 60.25654602 C-120.63142605 69.20690139 -123.05275818 79.34445852 -127.91297913 86.95967102 C-132.72443445 93.51750642 -137.83032577 98.5527331 -145.16297913 102.14717102 C-145.82297913 102.14717102 -146.48297913 102.14717102 -147.16297913 102.14717102 C-147.16297913 121.94717102 -147.16297913 141.74717102 -147.16297913 162.14717102 C-117.46297913 162.14717102 -87.76297913 162.14717102 -57.16297913 162.14717102 C-57.22098694 153.7914679 -57.27899475 145.43576477 -57.33876038 136.82685852 C-57.36758265 130.83647204 -57.3932092 124.84613812 -57.41424847 118.85572624 C-57.44187606 111.10978097 -57.47686177 103.36410708 -57.54017639 95.61836243 C-57.59569402 88.82319098 -57.62445532 82.02831334 -57.63736534 75.23292923 C-57.64655805 72.64874277 -57.66450861 70.0645712 -57.69162941 67.48051071 C-57.8712539 49.64627566 -57.24674596 35.87135394 -46.16297913 21.14717102 C-45.50297913 20.15717102 -44.84297913 19.16717102 -44.16297913 18.14717102 C-43.50297913 18.14717102 -42.84297913 18.14717102 -42.16297913 18.14717102 C-41.93223694 17.56838196 -41.70149475 16.9895929 -41.46376038 16.39326477 C-36.58522144 7.96936121 -25.01302421 3.794232 -16.16297913 1.14717102 C-10.76408148 -0.01013016 -5.49337796 -0.00106576 0 0 Z " fill="#13416F" transform="translate(565.1629791259766,197.8528289794922)"/>
<path d="M0 0 C1.01810456 -0.00523668 2.03620911 -0.01047336 3.08516532 -0.01586872 C6.50121854 -0.03088631 9.9171222 -0.03157427 13.33320618 -0.03224182 C15.78074395 -0.03986218 18.22827933 -0.04828947 20.67581177 -0.0574646 C27.32887845 -0.07943032 33.9818849 -0.08823333 40.63497901 -0.09329104 C44.79184235 -0.09655062 48.94869646 -0.10307472 53.10555458 -0.11029243 C64.6221814 -0.12985679 76.13879964 -0.14626166 87.65544415 -0.14916897 C88.39215573 -0.14935654 89.12886732 -0.14954411 89.8879035 -0.14973736 C91.38130526 -0.15010361 92.87470701 -0.1504673 94.36810877 -0.15082847 C95.48005074 -0.15110269 95.48005074 -0.15110269 96.61445618 -0.15138245 C97.7277608 -0.15165327 97.7277608 -0.15165327 98.86355642 -0.15192956 C110.8843026 -0.15546963 122.90486945 -0.18248221 134.92555346 -0.21988034 C147.27680517 -0.25799829 159.627968 -0.2773267 171.97927982 -0.27762848 C178.91014186 -0.27821231 185.84079005 -0.28665575 192.77159691 -0.31562614 C199.29285435 -0.34275984 205.81376283 -0.3440152 212.3350811 -0.3279705 C214.72554192 -0.32615543 217.11602702 -0.33285187 219.50643539 -0.34878922 C222.77651786 -0.36925817 226.04512108 -0.35869152 229.31518555 -0.34057617 C230.72548264 -0.36037612 230.72548264 -0.36037612 232.16427058 -0.38057607 C239.67529387 -0.28590398 246.32963082 1.84107454 251.89166373 7.07912642 C257.95590242 13.83771407 260.08308433 19.35478871 260.14672852 28.38298035 C260.15625218 29.45769793 260.15625218 29.45769793 260.16596824 30.55412698 C260.18601073 32.95525778 260.19906542 35.35637484 260.21211243 37.7575531 C260.22496708 39.47913402 260.23822156 41.20071199 260.25184631 42.92228699 C260.28745269 47.6000998 260.31669016 52.27793167 260.34423804 56.95579815 C260.36174512 59.87926963 260.38062092 62.80272895 260.39998817 65.72618866 C260.4675418 75.92802391 260.5299389 86.12987602 260.58760071 96.33177185 C260.64145572 105.83617224 260.70656188 115.34045047 260.77693909 124.84474158 C260.83688534 133.00789816 260.88892895 141.17108057 260.93486625 149.33432794 C260.96242868 154.20829825 260.99317238 159.0821972 261.03188133 163.95609283 C261.06803688 168.54264734 261.09433527 173.12915532 261.11315918 177.71581268 C261.12171045 179.39598759 261.13373245 181.07614911 261.14954567 182.75627136 C261.17064658 185.05671139 261.17901305 187.35687123 261.18432617 189.65739441 C261.19224528 190.94270931 261.20016439 192.22802422 261.20832348 193.55228806 C260.66182799 202.27166631 257.75608491 208.72831571 251.97505188 215.27415466 C247.17064169 219.12824196 242.62476604 221.39268017 236.40270996 221.41218567 C235.46487167 221.41763901 234.52703339 221.42309235 233.56077576 221.42871094 C232.02016983 221.43027443 232.02016983 221.43027443 230.44844055 221.43186951 C229.36524033 221.43695023 228.2820401 221.44203094 227.16601562 221.44726562 C224.81045532 221.45797631 222.45488479 221.46659374 220.09930992 221.47338486 C216.3714196 221.4851604 212.64364583 221.5046099 208.915802 221.52650452 C198.31538711 221.58816608 187.71499831 221.64241367 177.11445618 221.67552185 C170.63348798 221.69645815 164.15273171 221.73175404 157.67188454 221.77627945 C155.20117499 221.79044855 152.73042794 221.79916393 150.25967979 221.80233383 C146.802843 221.80723824 143.34656933 221.83038538 139.8898468 221.85765076 C138.86884888 221.85464462 137.84785095 221.85163849 136.7959137 221.84854126 C130.05206063 221.92759616 125.6503406 222.87561995 120.48286438 227.50852966 C119.69653625 228.33868591 118.91020813 229.16884216 118.10005188 230.02415466 C115.32721965 232.93425582 112.52481628 235.68830654 109.46455383 238.28904724 C104.70681618 242.43371753 100.26647654 246.8681842 95.82596016 251.34808159 C94.35307466 252.83391435 92.87692641 254.31643876 91.39996338 255.79821777 C88.27630287 258.93319431 85.15665666 262.07214632 82.03755188 265.21165466 C78.39639088 268.8764307 74.75359555 272.53955222 71.10661125 276.19853401 C69.65039205 277.66124678 68.19720579 279.12692808 66.74411011 280.59274292 C65.86907333 281.47108292 64.99403656 282.34942291 64.09248352 283.25437927 C62.93287865 284.42183937 62.93287865 284.42183937 61.74984741 285.61288452 C59.97505188 287.27415466 59.97505188 287.27415466 58.97505188 287.27415466 C58.97140625 286.66551575 58.96776062 286.05687683 58.96400452 285.42979431 C58.92205202 279.0699149 58.85261734 272.71074859 58.76753235 266.3513031 C58.73938299 263.9809331 58.71813859 261.61047028 58.70405579 259.23997498 C58.68254337 255.82380361 58.63584794 252.40874111 58.58442688 248.99290466 C58.58319824 247.94050598 58.5819696 246.8881073 58.58070374 245.80381775 C58.42168963 237.73616623 56.85144563 232.28129358 51.22505188 226.39915466 C43.45645876 221.31968993 34.46270802 221.86836579 25.47505188 221.64915466 C23.52598938 221.59114685 23.52598938 221.59114685 21.53755188 221.53196716 C18.35018902 221.4382212 15.16282398 221.35251117 11.97505188 221.27415466 C11.93017639 220.52432312 11.8853009 219.77449158 11.83906555 219.00193787 C11.62478275 215.52938231 11.39374046 212.05812412 11.16255188 208.58665466 C11.09229797 207.40780701 11.02204407 206.22895935 10.94966125 205.01438904 C10.17844868 193.75468547 8.53591599 183.00050679 3.16255188 172.96165466 C2.80926819 172.28288269 2.4559845 171.60411072 2.09199524 170.9047699 C-0.52185482 165.98433776 -3.29162086 161.43440743 -7.02494812 157.27415466 C-7.66819031 156.53938904 -8.3114325 155.80462341 -8.97416687 155.04759216 C-13.36164626 150.20119285 -13.36164626 150.20119285 -19.07987976 147.2696228 C-22.91237153 145.97988594 -25.77811981 144.67313855 -28.02494812 141.27415466 C-30.28016484 133.18362281 -29.54955561 124.30370309 -29.37340164 115.99057126 C-29.31297534 112.58718026 -29.31794709 109.18383637 -29.31474304 105.77999878 C-29.29999646 100.06387128 -29.24027318 94.349672 -29.14994812 88.63426208 C-29.03452127 81.31597664 -28.99305489 73.99924323 -28.97521973 66.68014622 C-28.95924896 60.36702739 -28.90924924 54.05424081 -28.85383224 47.74136233 C-28.83750528 45.72262824 -28.82576788 43.7039056 -28.81465149 41.6851368 C-28.78707391 37.91024551 -28.73249065 34.13673539 -28.66947937 30.36228943 C-28.66500793 29.25190811 -28.6605365 28.14152679 -28.65592957 26.99749756 C-28.48384353 19.1933806 -27.15784906 13.80497325 -21.84135437 7.81321716 C-20.72567078 6.86575623 -20.72567078 6.86575623 -19.58744812 5.89915466 C-18.84623718 5.25204529 -18.10502625 4.60493591 -17.34135437 3.93821716 C-11.74306314 -0.08348952 -6.6648506 -0.01691927 0 0 Z " fill="#BFE6F8" transform="translate(564.0249481201172,225.72584533691406)"/>
<path d="M0 0 C0.92926969 -0.00453111 1.85853938 -0.00906223 2.81596875 -0.01373065 C5.91945744 -0.02635717 9.02277025 -0.02475539 12.12628174 -0.02310181 C14.3557457 -0.02908817 16.58520758 -0.03589396 18.81466675 -0.04345703 C24.86439576 -0.06111387 30.91406817 -0.0658123 36.96382046 -0.0670886 C40.7458168 -0.06851101 44.52779879 -0.07278233 48.30979156 -0.07808304 C60.82967618 -0.09562836 73.34952867 -0.10492342 85.869423 -0.10342209 C86.54361021 -0.10334218 87.21779742 -0.10326227 87.91241455 -0.10317993 C88.92493891 -0.10305729 88.92493891 -0.10305729 89.95791832 -0.10293217 C100.89146409 -0.10211969 111.82487197 -0.12125007 122.75837788 -0.14945666 C134.00115288 -0.17823082 145.24386281 -0.19162874 156.48668218 -0.19026911 C162.79209522 -0.18975984 169.09735218 -0.19542428 175.40273285 -0.21662521 C181.3355255 -0.23602896 187.26801353 -0.23611717 193.20081711 -0.22159195 C195.3731595 -0.21950539 197.54552106 -0.22419557 199.71783066 -0.23631287 C215.72955523 -0.31981311 228.29051535 0.83995495 240.57647705 12.26742554 C249.26430044 23.15891216 251.02582914 32.73966737 250.96466064 46.33724976 C250.96873094 47.85913468 250.97407538 49.38101665 250.98059082 50.90289307 C250.99421819 55.01873629 250.98898419 59.13435283 250.97945356 63.25019979 C250.97183038 67.56967856 250.9789102 71.88913859 250.98361206 76.20861816 C250.98906306 83.46311914 250.98189647 90.71752836 250.96759033 97.97201538 C250.95127738 106.34038277 250.95654509 114.7085307 250.97306955 123.07689273 C250.98671786 130.27886825 250.9885874 137.48077799 250.98075354 144.68276227 C250.97609378 148.97657241 250.97540494 153.2702797 250.98536301 157.5640831 C250.9940788 161.60418248 250.98792731 165.64400127 250.97068024 169.68407059 C250.96673934 171.16019985 250.96780796 172.63635304 250.97446823 174.11247253 C251.03033363 187.7604913 248.90353702 199.12624779 239.53741455 209.53305054 C234.42225125 214.41324168 229.27646742 217.12681489 222.57647705 219.26742554 C221.58647705 219.59742554 220.59647705 219.92742554 219.57647705 220.26742554 C216.56282583 220.37033981 213.57203137 220.41522895 210.55804443 220.41459656 C209.15701579 220.42011159 209.15701579 220.42011159 207.72768354 220.42573804 C204.58417692 220.43678953 201.44070334 220.44062125 198.29718018 220.44442749 C196.04860326 220.45069116 193.80002738 220.45733787 191.55145264 220.46434021 C185.43125577 220.48176177 179.31106673 220.4923057 173.19085121 220.50054574 C169.36666859 220.50569475 165.5424884 220.51177061 161.7183075 220.51805687 C151.12393737 220.53492985 140.52956939 220.54956323 129.93518829 220.55680561 C127.18606057 220.55871542 124.43693286 220.56063576 121.68780518 220.56259155 C120.66291596 220.56331716 120.66291596 220.56331716 119.61732191 220.56405743 C108.56066515 220.5723493 97.50411688 220.59767092 86.44750744 220.63017223 C75.08733838 220.66329253 63.72724373 220.68092658 52.36701918 220.68444985 C45.99223179 220.68679911 39.61761575 220.69574335 33.24287415 220.72091103 C27.24120383 220.744222 21.23981729 220.74841259 15.2381134 220.73814964 C13.03996842 220.73765487 10.84180933 220.74395787 8.64370728 220.75770569 C-5.34690799 220.84028374 -17.11460718 220.72399125 -28.35321045 211.31820679 C-36.82707475 202.9242846 -40.69706975 194.10623533 -40.84251499 182.27411509 C-40.85271106 180.10610047 -40.84825437 177.93838468 -40.84344482 175.77035522 C-40.85079316 174.20245258 -40.85938161 172.63455533 -40.86911011 171.06666565 C-40.89125792 166.82468516 -40.89426007 162.58289932 -40.89236259 158.34086895 C-40.89224255 154.7900472 -40.90082092 151.23926618 -40.90914011 147.68845582 C-40.92835112 139.30443219 -40.9312669 130.92050811 -40.92449951 122.53646851 C-40.91786501 113.9112913 -40.94070447 105.28654243 -40.97781324 96.66145205 C-41.00859134 89.23608665 -41.01986137 81.81085843 -41.01597643 74.38543057 C-41.01391676 69.95955825 -41.01926594 65.53401915 -41.04386902 61.1082077 C-41.06626737 56.94157697 -41.06415091 52.77563805 -41.0439415 48.60900307 C-41.04055408 47.088552 -41.04552163 45.56805317 -41.05992508 44.04766655 C-41.17820379 30.62561821 -38.37465897 20.28049809 -28.8883667 10.46273804 C-20.15498679 2.6843553 -11.44948355 -0.0412705 0 0 Z " fill="#BEE6F8" transform="translate(296.42352294921875,387.7325744628906)"/>
<path d="M0 0 C1.12461435 -0.00382555 2.2492287 -0.00765109 3.40792227 -0.01159257 C7.14850228 -0.02185046 10.88892673 -0.01794417 14.6295166 -0.01396179 C17.32262168 -0.01831219 20.01571565 -0.02343254 22.70881653 -0.02944946 C29.24758403 -0.04215524 35.78631038 -0.0439954 42.32508814 -0.0416492 C47.64224174 -0.03986162 52.95938292 -0.04162507 58.27653503 -0.04587364 C59.41437203 -0.04676643 59.41437203 -0.04676643 60.57519564 -0.04767724 C62.11649072 -0.04888907 63.6577858 -0.0501032 65.19908088 -0.05131962 C79.63072935 -0.06217881 94.06235441 -0.06004008 108.49400419 -0.05393478 C121.68085036 -0.04876436 134.8676227 -0.06002724 148.05445427 -0.07903299 C161.61614143 -0.09842827 175.17779368 -0.1066646 188.7394948 -0.10290974 C196.34484318 -0.10100061 203.95012868 -0.10345736 211.5554657 -0.11762428 C218.02833713 -0.12956046 224.50110695 -0.1309178 230.97397983 -0.11883412 C234.27262932 -0.11296168 237.57105565 -0.11344048 240.86969948 -0.12383652 C244.45407529 -0.1343166 248.03795616 -0.12619257 251.62231445 -0.11352539 C252.65278066 -0.12089968 253.68324687 -0.12827396 254.74493933 -0.13587171 C271.13859589 -0.01445822 285.64821108 6.84895218 297.31115723 18.26069641 C309.53094596 32.52406756 313.79324165 46.79667459 313.74475098 65.26850891 C313.74932218 66.80447111 313.75463051 68.34043128 313.76063538 69.87638855 C313.76951979 73.0786323 313.7671951 76.28062599 313.75720215 79.48286438 C313.74568678 83.56928989 313.76598621 87.65485451 313.79511929 91.74116707 C313.81353038 94.90694067 313.81317967 98.07250947 313.80748177 101.23832321 C313.80732932 102.74449247 313.81330981 104.25067628 313.82577324 105.75679398 C313.9382954 121.57231843 313.9382954 121.57231843 309.31115723 127.26069641 C302.82733066 133.33770771 295.49221204 132.96369542 287.07090759 132.88215637 C285.62117918 132.88648908 284.17145595 132.89300843 282.72174603 132.90151644 C278.75116071 132.91847351 274.78120806 132.90435121 270.81065619 132.88500166 C266.5236182 132.86955382 262.23665668 132.88298186 257.94961548 132.89274597 C249.55680867 132.9072642 241.16424397 132.89504715 232.77146011 132.87363273 C222.99702082 132.84960925 213.22263686 132.85133791 203.4481746 132.85393864 C186.00832754 132.85762796 168.56859448 132.83681008 151.12878418 132.8026886 C134.20687987 132.76959272 117.2850952 132.75543128 100.36315918 132.76167297 C81.93374738 132.76843728 63.50438568 132.76597599 45.07498127 132.74631357 C44.1004235 132.74527409 43.12586574 132.7442346 42.12177591 132.74316362 C40.16445125 132.74107273 38.2071266 132.73896175 36.24980197 132.73683044 C29.43670191 132.72993575 22.62361728 132.72926538 15.81051445 132.73071289 C7.50828786 132.73215271 -0.79384119 132.72245947 -9.09603543 132.69876653 C-13.33183061 132.68690828 -17.56748986 132.67978026 -21.80330086 132.6856041 C-25.68132961 132.69077848 -29.55907128 132.6820788 -33.43705093 132.66232949 C-34.83934176 132.65759258 -36.24166058 132.65788611 -37.64394719 132.66373986 C-52.82012199 132.7209666 -52.82012199 132.7209666 -58.64978027 127.50679016 C-59.34974121 126.61153625 -59.34974121 126.61153625 -60.06384277 125.69819641 C-60.54595215 125.09878235 -61.02806152 124.49936829 -61.52478027 123.88179016 C-63.96118985 120.48880367 -63.83690344 118.01110365 -63.88171387 113.86177063 C-63.88989136 113.20442932 -63.89806885 112.54708801 -63.90649414 111.86982727 C-63.9313789 109.68502192 -63.94788844 107.50028259 -63.96228027 105.31538391 C-63.96760395 104.5649091 -63.97292763 103.81443428 -63.97841263 103.0412178 C-64.00518107 99.05465466 -64.02452802 95.06812295 -64.03894043 91.08149719 C-64.05217605 87.80907079 -64.07982652 84.53728342 -64.12097168 81.26509094 C-64.17088988 77.29450231 -64.19513505 73.32448462 -64.20216751 69.35359573 C-64.20879504 67.85398758 -64.2237885 66.35438779 -64.24805832 64.8549614 C-64.53628792 45.93959767 -58.8941492 30.37602641 -45.84509277 16.32319641 C-32.78790674 3.83371412 -17.61318266 -0.06459787 0 0 Z " fill="#BDE5F8" transform="translate(277.6888427734375,676.7393035888672)"/>
<path d="M0 0 C1.15653749 -0.00297112 2.31307498 -0.00594224 3.50465906 -0.0090034 C6.70180124 -0.01615833 9.8989106 -0.01886074 13.09605956 -0.01960087 C16.54952957 -0.0214584 20.0029881 -0.02900922 23.45645142 -0.03573608 C31.00212207 -0.04929163 38.54778739 -0.0553398 46.09346819 -0.05974674 C50.80950946 -0.06251389 55.5255487 -0.0667521 60.24158859 -0.07125092 C73.31183302 -0.08343999 86.38207583 -0.09373999 99.45232582 -0.09712601 C100.70600398 -0.09745536 100.70600398 -0.09745536 101.98500898 -0.09779136 C102.82273653 -0.09800964 103.66046409 -0.09822791 104.52357733 -0.09845281 C106.22098963 -0.09889626 107.91840192 -0.09934283 109.61581421 -0.09979248 C110.45778026 -0.10001391 111.29974631 -0.10023534 112.16722648 -0.10046348 C125.80239465 -0.10440939 139.43750931 -0.12185873 153.07265683 -0.145152 C167.08848714 -0.16890135 181.10429064 -0.18132949 195.12014139 -0.18249393 C202.98271818 -0.18340868 210.84522523 -0.18911047 218.70778275 -0.20731354 C225.40429875 -0.22276298 232.10072347 -0.22780656 238.79725392 -0.21957543 C242.2095309 -0.21568598 245.6216243 -0.2165143 249.03387833 -0.23063278 C252.74474677 -0.24338903 256.45514983 -0.23745498 260.16601562 -0.22705078 C261.22840316 -0.23510719 262.2907907 -0.24316359 263.3853718 -0.25146413 C283.35413054 -0.1212857 300.09496804 8.06621556 315.46395874 20.14044189 C316.21032593 20.70247314 316.95669312 21.26450439 317.72567749 21.84356689 C332.68757284 33.86164105 341.74350059 51.8986714 346.46395874 70.14044189 C346.63956833 70.70811279 346.81517792 71.27578369 346.99610901 71.86065674 C347.6448284 75.02180175 347.6162853 78.06217032 347.64096069 81.28887939 C347.64753189 82.00170578 347.65410309 82.71453217 347.66087341 83.44895935 C347.68055462 85.80445476 347.69226168 88.15988634 347.70223999 90.51544189 C347.70631552 91.32423798 347.71039104 92.13303406 347.71459007 92.96633911 C347.73543565 97.25304913 347.74974003 101.53972735 347.75912476 105.82647705 C347.7701447 110.22646759 347.80449723 114.62594621 347.84429646 119.02575684 C347.87061556 122.43185275 347.87883038 125.83782993 347.88240623 129.24401855 C347.88723823 130.86412994 347.89875392 132.48423726 347.91744423 134.10424805 C348.08846746 149.91965733 344.78444031 163.28206391 333.96395874 175.32794189 C326.32381889 182.6127264 315.84755717 187.25749664 305.33059502 187.27466297 C304.06432522 187.27912082 302.79805542 187.28357866 301.49341381 187.28817159 C300.08539191 187.28808229 298.67737002 187.28789245 297.26934814 187.28761292 C295.77571935 187.29091243 294.28209144 187.29463818 292.78846467 187.29875439 C288.67803555 187.30877253 284.56762104 187.31249089 280.45718145 187.3151437 C276.02620161 187.3190473 271.59523333 187.32862559 267.16426086 187.33735657 C256.46056144 187.35711926 245.75686108 187.36718687 235.05314797 187.37608436 C230.01268686 187.38046752 224.97222679 187.38583425 219.93176651 187.39107323 C203.17637538 187.4080852 186.42098491 187.42257947 169.66558647 187.42982197 C165.31745274 187.43173186 160.96931901 187.4336522 156.6211853 187.43560791 C155.54047725 187.43609165 154.4597692 187.43657539 153.34631242 187.43707379 C135.83870275 187.44537448 118.3311614 187.47071221 100.82358156 187.50318859 C82.84942802 187.53625867 64.8753092 187.55427068 46.90112507 187.55746621 C36.80907971 187.55963133 26.71713397 187.56838042 16.62511826 187.59392738 C8.03047416 187.61563364 -0.5640461 187.62368514 -9.15871449 187.6139606 C-13.54275483 187.60941572 -17.92653967 187.61131306 -22.31054497 187.63072205 C-26.32770572 187.64835309 -30.34442457 187.64735666 -34.36159001 187.63182475 C-35.81117309 187.62944858 -37.26078677 187.63377278 -38.71032311 187.6456534 C-47.1911257 187.71083136 -53.93964841 187.0439996 -61.53604126 183.14044189 C-62.54795532 182.63384033 -63.55986938 182.12723877 -64.60244751 181.60528564 C-76.06686184 174.59028408 -82.48108453 165.14452488 -86.72354126 152.64044189 C-88.71492456 144.06217536 -88.70853671 135.46137281 -88.73916626 126.69903564 C-88.74486633 125.41795425 -88.75056641 124.13687286 -88.75643921 122.81697083 C-88.76688379 120.11318574 -88.77276823 117.40942979 -88.77627563 114.70562744 C-88.78064946 111.96623333 -88.79451086 109.22715609 -88.81729126 106.487854 C-89.08448966 73.6983759 -84.19919646 48.37515926 -60.66104126 23.95294189 C-43.95512578 7.70402715 -23.01363515 -0.01853637 0 0 Z M-43.72744751 47.45294189 C-55.6098118 61.52238272 -59.01682793 76.3298191 -58.96963501 94.31622314 C-58.97420663 95.85554736 -58.97951509 97.39486955 -58.98551941 98.93418884 C-58.99439403 102.13884858 -58.99208854 105.34325828 -58.98208618 108.5479126 C-58.97054163 112.64459329 -58.99091938 116.74041898 -59.02000332 120.8369875 C-59.03837414 124.00696736 -59.03807222 127.17674195 -59.0323658 130.3467617 C-59.03221302 131.85737504 -59.03822127 133.36800268 -59.05065727 134.87856483 C-59.06560192 136.98894444 -59.0548716 139.09773762 -59.03775024 141.20806885 C-59.03758408 142.40510941 -59.03741791 143.60214996 -59.0372467 144.83546448 C-58.19998819 150.35639508 -54.79409673 154.63380797 -50.53604126 158.14044189 C-46.34737907 159.80818239 -42.83142894 160.39223192 -38.3384037 160.40050411 C-37.10871915 160.4075697 -35.87903461 160.41463529 -34.61208689 160.42191499 C-33.2557342 160.41966387 -31.89938182 160.4172174 -30.54302979 160.41459656 C-29.09574525 160.41905071 -27.64846316 160.42436534 -26.20118463 160.43046528 C-22.22821438 160.44463409 -18.25532241 160.44630879 -14.28233051 160.44586837 C-9.99592791 160.44751753 -5.70955747 160.46058573 -1.423172 160.47206116 C7.94654529 160.49490078 17.31623992 160.50283035 26.68598127 160.5078876 C32.53652375 160.51114521 38.38705966 160.51766799 44.23759842 160.52488899 C60.43719712 160.54445196 76.63678971 160.56085848 92.83640099 160.56376553 C93.87280931 160.5639531 94.90921764 160.56414067 95.97703228 160.56433392 C98.0780526 160.56470017 100.17907292 160.56506387 102.28009324 160.56542503 C103.32303448 160.56560784 104.36597572 160.56579065 105.44052124 160.565979 C106.48473553 160.56615955 107.52894982 160.5663401 108.60480697 160.56652612 C125.53167759 160.57006916 142.45842111 160.59710098 159.38524763 160.63447689 C176.76507376 160.67254601 194.14483678 160.69192289 211.52470553 160.69222504 C221.28244758 160.69280985 231.04003791 160.70131743 240.79774094 160.7302227 C249.10476208 160.75471766 257.41157614 160.76203209 265.71862362 160.74697518 C269.95666562 160.73979906 274.19429854 160.74069377 278.43229485 160.76338577 C282.31367159 160.78396924 286.1943246 160.78138201 290.07569344 160.76051093 C291.47807518 160.75701481 292.88050907 160.76193143 294.28282242 160.77621537 C302.12842967 160.85096614 308.51081437 160.72779334 314.46395874 155.14044189 C319.93563698 148.38092509 319.06517424 139.83009692 319.03036499 131.57403564 C319.03561199 130.05198286 319.04189237 128.52993333 319.04914856 127.00788879 C319.05952496 123.82299472 319.05503753 120.63854806 319.04037476 117.45367432 C319.02328341 113.41475595 319.04657487 109.37727331 319.08186436 105.33851528 C319.10407097 102.19386241 319.10234003 99.04953995 319.09409904 95.90483284 C319.09329036 94.41840107 319.09994166 92.93194227 319.11487007 91.44558525 C319.24393959 76.25747442 315.6859639 63.55005319 306.46395874 51.14044189 C305.95348999 50.43532471 305.44302124 49.73020752 304.91708374 49.00372314 C296.11943469 37.9195564 282.33512319 30.35239481 268.46395874 28.14044189 C264.65205096 27.87150726 260.85606214 27.86578559 257.03581238 27.87974548 C255.91502358 27.87591994 254.79423478 27.87209439 253.63948268 27.86815292 C249.89969268 27.85786899 246.16005754 27.86180639 242.42025757 27.86578369 C239.73231501 27.8614346 237.04438364 27.85631486 234.35644531 27.85029602 C227.82174441 27.83757342 221.28708464 27.83575238 214.75237343 27.83809628 C209.43662798 27.83988279 204.12089496 27.83812269 198.80515099 27.83387184 C198.04718817 27.83327665 197.28922536 27.83268146 196.50829398 27.83206824 C194.96821302 27.83085642 193.42813207 27.82964228 191.88805111 27.82842586 C177.45727437 27.81755915 163.02652102 27.81970836 148.59574296 27.82581071 C135.4172628 27.83097582 122.23885664 27.8197336 109.06039111 27.80071249 C95.50666285 27.78130083 81.95296955 27.77308412 68.39922732 27.77683574 C60.79878376 27.77874316 53.19840313 27.77630541 45.59797096 27.7621212 C39.12550282 27.75016372 32.65313632 27.74885095 26.18066666 27.76091137 C22.88368486 27.7667704 19.58692537 27.76633259 16.28994942 27.75590897 C-7.32459024 27.68666176 -26.55135758 29.32772757 -43.72744751 47.45294189 Z " fill="#13416F" transform="translate(272.5360412597656,648.8595581054688)"/>
<path d="M0 0 C0.78730991 -0.00367669 1.57461982 -0.00735338 2.38578761 -0.01114148 C5.02653632 -0.02216332 7.66724566 -0.02601957 10.30801392 -0.02983093 C12.20032374 -0.03609656 14.09263233 -0.04274345 15.98493958 -0.04974365 C22.20020696 -0.0707692 28.41547457 -0.08114253 34.63076782 -0.09111023 C36.77029051 -0.09515792 38.90981306 -0.09927484 41.04933548 -0.10346031 C51.09800681 -0.12250624 61.14667081 -0.13674027 71.19535673 -0.14507228 C82.79862662 -0.15485215 94.40170613 -0.18119378 106.00490892 -0.22157317 C114.97231439 -0.25171061 123.9396652 -0.26653878 132.90712035 -0.26985329 C138.26396548 -0.27220589 143.62060706 -0.28119411 148.97739792 -0.30631447 C154.01549114 -0.32955955 159.05324626 -0.33384276 164.09137917 -0.32355309 C165.94008953 -0.3230568 167.78881634 -0.32940457 169.63747597 -0.34310913 C172.16228826 -0.36077877 174.68588057 -0.35374682 177.21069336 -0.34057617 C177.94144085 -0.35154542 178.67218835 -0.36251466 179.4250797 -0.37381631 C184.48334153 -0.31015248 187.32294934 0.99355326 191.23233032 4.14717102 C194.09955281 7.587838 194.7799417 10.59513276 194.57608032 15.08857727 C193.9867733 18.61772274 192.78989781 21.61524331 190.23233032 24.14717102 C185.11547146 26.74787122 180.93614317 27.58172268 175.17982483 27.52812195 C174.39811875 27.53280192 173.61641267 27.53748189 172.81101853 27.54230368 C170.20705817 27.5542135 167.60362802 27.5448124 164.99966431 27.53535461 C163.12661432 27.53942207 161.25356674 27.54476493 159.38052368 27.55128479 C154.30419092 27.56494252 149.2280414 27.55966632 144.1517055 27.55014753 C138.83605127 27.5425441 133.52041255 27.54959835 128.20475769 27.55430603 C119.27975654 27.5597611 110.35482992 27.55257795 101.42984009 27.5382843 C91.11362853 27.52195329 80.79759481 27.5272506 70.48138756 27.54376352 C61.62006402 27.55737946 52.758794 27.55929766 43.89746338 27.55144751 C38.60667096 27.54677225 33.31596213 27.54614226 28.02517509 27.55605698 C23.05189821 27.56472607 18.07885058 27.55870568 13.10559845 27.54137421 C11.2810892 27.53740929 9.45656065 27.53854349 7.6320591 27.5451622 C5.14039679 27.55336749 2.64946783 27.54306875 0.15785217 27.52812195 C-0.56306706 27.53481411 -1.2839863 27.54150628 -2.02675158 27.54840124 C-6.66853168 27.49443981 -9.82141235 26.58110271 -13.76766968 24.14717102 C-16.97753365 20.68389673 -18.08341581 17.83442203 -18.39266968 13.20967102 C-18.20427589 8.41287546 -16.69370519 5.88344651 -13.47079468 2.42451477 C-9.52424685 -0.5353961 -4.73081687 -0.00118631 0 0 Z " fill="#123F6D" transform="translate(593.7676696777344,266.8528289794922)"/>
<path d="M0 0 C1.27852844 -0.00845947 2.55705688 -0.01691895 3.87432861 -0.02563477 C5.27868781 -0.0198027 6.68304574 -0.01365825 8.08740234 -0.00723267 C9.57607406 -0.01130068 11.06474276 -0.01664385 12.55340576 -0.02316284 C16.58645816 -0.036815 20.61927979 -0.03154654 24.65233612 -0.02202559 C28.8776053 -0.01441808 33.10285503 -0.02147763 37.328125 -0.02618408 C44.42305032 -0.03163846 51.51788189 -0.02445838 58.61279297 -0.01016235 C66.80965247 0.00616357 75.00628809 0.00087484 83.20314217 -0.01564157 C90.24705481 -0.02926551 97.29090014 -0.03117166 104.3348217 -0.02332556 C108.53910872 -0.01865403 112.74329058 -0.01800986 116.9475708 -0.02793503 C120.90063176 -0.03661566 124.85340471 -0.03056293 128.80643463 -0.01325226 C130.25521619 -0.00929325 131.70402208 -0.01041145 133.15279388 -0.01704025 C135.13408021 -0.02526819 137.11541965 -0.01310915 139.09667969 0 C140.20425629 0.00113108 141.31183289 0.00226215 142.45297241 0.00342751 C147.34537737 0.60012483 150.57387674 2.30114046 153.86083984 5.94345093 C156.6800406 10.01562979 157.03301579 12.37263277 156.54833984 17.38095093 C154.46019574 22.01663084 152.37948918 25.47038498 147.54833984 27.38095093 C144.6393919 27.64380646 144.6393919 27.64380646 141.19206238 27.66183472 C139.88407181 27.673255 138.57608124 27.68467529 137.22845459 27.69644165 C135.78064003 27.69893221 134.33282504 27.70118244 132.88500977 27.70321655 C131.35884625 27.71247619 129.83268734 27.72252595 128.30653381 27.73330688 C124.16180649 27.75952681 120.01714392 27.77243911 115.87234664 27.7813282 C113.28189141 27.78719395 110.69145381 27.79540434 108.10100746 27.80433655 C99.99318976 27.83167847 91.88541243 27.85101591 83.77755183 27.85874033 C74.42335391 27.86770157 65.06974054 27.90279967 55.71572036 27.96074152 C48.48160775 28.00399409 41.24765949 28.02414985 34.01341897 28.02682257 C29.69430167 28.02891727 25.37573414 28.0407008 21.05675316 28.07646179 C16.99272532 28.10945785 12.92965945 28.11371957 8.86554527 28.09618378 C7.37684042 28.09464479 5.88808348 28.1033062 4.39950943 28.12310028 C-8.2359797 28.28122056 -8.2359797 28.28122056 -12.82987976 24.46139526 C-16.60915033 20.49424371 -16.79855015 17.27898046 -16.72900391 11.92391968 C-16.31741304 8.1500372 -15.00964232 6.14087905 -12.45166016 3.38095093 C-8.14777523 0.81551818 -4.9863651 0.00509216 0 0 Z " fill="#12416F" transform="translate(592.45166015625,323.6190490722656)"/>
<path d="M0 0 C7.30339477 6.22813397 10.39692801 13.54706705 11.2421875 22.9609375 C11.6783915 32.46717649 8.95226567 39.9353331 2.79296875 47.1796875 C-4.04984846 54.27010665 -10.86697212 56.80665863 -20.64453125 57.0546875 C-30.32808031 56.92414946 -37.07200238 53.5087581 -44.046875 46.890625 C-46.81887768 43.77283058 -48.48310882 40.6183592 -49.95703125 36.7421875 C-50.36953125 35.7934375 -50.78203125 34.8446875 -51.20703125 33.8671875 C-53.13767522 25.82283761 -52.52043098 16.81839355 -48.76953125 9.390625 C-43.49492282 0.81938631 -36.10807384 -4.29127579 -26.45703125 -6.9453125 C-16.51680072 -8.18784132 -8.12403725 -5.78028845 0 0 Z " fill="#13416F" transform="translate(489.95703125,470.2578125)"/>
<path d="M0 0 C5.88925466 4.48208761 10.02141543 11.59785885 11.5390625 18.79296875 C12.82603946 29.50347698 10.9012802 37.75923043 4.62109375 46.64453125 C-0.8008273 53.14349306 -7.78213142 57.17115263 -16.1875 58.03515625 C-26.69465128 58.4139024 -33.64460574 55.77369517 -41.3203125 48.6484375 C-47.90403668 41.54721535 -50.50035427 34.36764224 -50.2890625 24.77734375 C-49.73360976 15.32257211 -46.8950094 8.44033193 -40.06640625 1.703125 C-27.43662321 -8.93718779 -13.70432208 -8.32410674 0 0 Z " fill="#13416F" transform="translate(354.109375,469.28125)"/>
<path d="M0 0 C0.73397003 -0.00365067 1.46794006 -0.00730133 2.22415161 -0.01106262 C4.64055817 -0.01914182 7.05628857 -0.00558037 9.47265625 0.0090332 C11.1574707 0.00955213 12.84228576 0.00903317 14.52709961 0.00752258 C18.05429144 0.00761219 21.58125415 0.0180177 25.10839844 0.03613281 C29.6243806 0.05881954 34.14002817 0.05936281 38.65605164 0.05261517 C42.13394126 0.04927001 45.61175492 0.05591558 49.08963013 0.0657444 C50.75456342 0.06958725 52.41950517 0.07074841 54.08444214 0.06915855 C56.41322868 0.06878674 58.74158999 0.08144041 61.0703125 0.09765625 C62.09754929 0.09394012 62.09754929 0.09394012 63.14553833 0.09014893 C68.83011895 0.15316363 72.16004597 1.05970919 76.28515625 4.99731445 C79.15951074 8.72669845 79.53515625 11.68530579 79.53515625 16.37231445 C78.0012722 20.57031292 75.99765207 23.53936333 72.53515625 26.37231445 C68.83070034 27.69283628 64.99253761 27.54141605 61.10791016 27.56518555 C60.36593887 27.57336304 59.62396759 27.58154053 58.85951233 27.58996582 C56.41025587 27.61472799 53.9610569 27.63131 51.51171875 27.64575195 C50.67336864 27.65107563 49.83501854 27.65639931 48.97126389 27.66188431 C44.53586493 27.68857286 40.10049373 27.70796355 35.66503906 27.72241211 C31.99844479 27.73576264 28.33240555 27.76364132 24.66601562 27.80444336 C20.23282333 27.85377255 15.80013517 27.87853275 11.36668015 27.88563919 C9.6801846 27.89234731 7.99370012 27.90755808 6.3073616 27.93153 C3.94470977 27.96320676 1.58400047 27.96321592 -0.77880859 27.95581055 C-1.47095963 27.97221588 -2.16311066 27.98862122 -2.87623596 28.00552368 C-8.43789875 27.93438648 -10.67830065 26.13977641 -14.46484375 22.37231445 C-17.15750436 18.30997677 -17.12900796 14.09525992 -16.46484375 9.37231445 C-12.7449787 1.93258436 -8.02595729 -0.08958253 0 0 Z " fill="#123F6D" transform="translate(617.46484375,381.627685546875)"/>
<path d="M0 0 C6.6 0 13.2 0 20 0 C20 22.77 20 45.54 20 69 C17.94451857 64.88903715 17.75510407 63.22398361 17.77294922 58.76269531 C17.77310028 57.50169006 17.77325134 56.24068481 17.77340698 54.94146729 C17.78361944 53.57035158 17.79405142 52.19923749 17.8046875 50.828125 C17.80841943 49.42136842 17.81126555 48.01460923 17.81326294 46.60784912 C17.82088524 42.91213761 17.84052155 39.21658425 17.8626709 35.52093506 C17.88315964 31.74705138 17.89227112 27.97314206 17.90234375 24.19921875 C17.9237689 16.79939885 17.95893946 9.39974177 18 2 C12.39 2 6.78 2 1 2 C1 32.36 1 62.72 1 94 C0.67 94 0.34 94 0 94 C0 62.98 0 31.96 0 0 Z " fill="#D6F0F7" transform="translate(576,475)"/>
<path d="M0 0 C2.03818811 3.05728217 2.25659287 3.74090401 2.31884766 7.19604492 C2.33890869 8.04839722 2.35896973 8.90074951 2.37963867 9.77893066 C2.39099854 10.67043823 2.4023584 11.5619458 2.4140625 12.48046875 C2.43170654 13.30309204 2.44935059 14.12571533 2.4675293 14.9732666 C2.53056767 18.04447935 2.57677419 21.11601895 2.625 24.1875 C2.74875 31.055625 2.8725 37.92375 3 45 C13.56 34.44 24.12 23.88 35 13 C35.66 13.33 36.32 13.66 37 14 C31.89483498 19.13042535 26.78582802 24.25700078 21.67407227 29.38085938 C19.93391645 31.12605818 18.19465726 32.87215147 16.45629883 34.61914062 C13.96407941 37.12342719 11.46870129 39.6245272 8.97265625 42.125 C8.19036148 42.91245605 7.40806671 43.69991211 6.60206604 44.51123047 C5.52105873 45.59235107 5.52105873 45.59235107 4.41821289 46.6953125 C3.78089737 47.33484863 3.14358185 47.97438477 2.48695374 48.63330078 C1 50 1 50 0 50 C0 33.5 0 17 0 0 Z " fill="#D7F2F9" transform="translate(623,463)"/>
<path d="M0 0 C6.93 0 13.86 0 21 0 C21.33 8.25 21.66 16.5 22 25 C17.65942661 18.48913992 18.88664639 9.55690715 19 2 C18.04738281 2.01160156 17.09476563 2.02320313 16.11328125 2.03515625 C14.85902344 2.04417969 13.60476562 2.05320312 12.3125 2.0625 C11.07113281 2.07410156 9.82976562 2.08570313 8.55078125 2.09765625 C5.53764546 2.01478673 2.91724661 1.70839449 0 1 C0 0.67 0 0.34 0 0 Z " fill="#D9F6FD" transform="translate(207,559)"/>
<path d="M0 0 C0.99 1.051875 0.99 1.051875 2 2.125 C6.94330596 7.02629486 11.75087217 11.63754361 19 12 C19 12.66 19 13.32 19 14 C19.99 14.33 20.98 14.66 22 15 C14.18664945 14.71587816 8.87993597 11.83482044 3.3203125 6.33984375 C0 2.52242232 0 2.52242232 0 0 Z " fill="#0D2C5E" transform="translate(443,511)"/>
<path d="M0 0 C0.66 0.33 1.32 0.66 2 1 C1.38125 1.2475 0.7625 1.495 0.125 1.75 C-2.12035698 2.80602923 -2.12035698 2.80602923 -2.90625 4.875 C-4.15699807 7.30502482 -5.51669808 8.53212436 -7.625 10.25 C-8.25664062 10.77078125 -8.88828125 11.2915625 -9.5390625 11.828125 C-10.02117187 12.21484375 -10.50328125 12.6015625 -11 13 C-11.66 12.67 -12.32 12.34 -13 12 C-11.3989569 10.3719224 -9.79405264 8.74764115 -8.1875 7.125 C-7.29417969 6.22007812 -6.40085938 5.31515625 -5.48046875 4.3828125 C-3 2 -3 2 0 0 Z " fill="#09295B" transform="translate(257,371)"/>
<path d="M0 0 C0.33 0.66 0.66 1.32 1 2 C-0.375 4 -0.375 4 -2 6 C-2.66 6 -3.32 6 -4 6 C-4.226875 6.61875 -4.45375 7.2375 -4.6875 7.875 C-6.37929835 10.61410209 -7.99244161 11.05024472 -11 12 C-7.49102731 7.81576108 -3.91939465 3.80411834 0 0 Z " fill="#092A5C" transform="translate(216,669)"/>
<path d="M0 0 C0.66 0 1.32 0 2 0 C0.71480435 2.86697492 -0.57129254 4.97607712 -3 7 C-3.66 7 -4.32 7 -5 7 C-5.28875 7.639375 -5.5775 8.27875 -5.875 8.9375 C-7 11 -7 11 -9 12 C-8 10 -7 8 -6 6 C-5.34 6 -4.68 6 -4 6 C-3.71125 5.38125 -3.4225 4.7625 -3.125 4.125 C-2 2 -2 2 0 0 Z " fill="#123262" transform="translate(527,210)"/>
<path d="M0 0 C0 3.63053243 -1.2278255 4.95750337 -3.5546875 7.63671875 C-5.49136818 9.46347972 -7.46012234 10.27432067 -10 11 C-6.79239749 7.19364503 -3.59253891 3.45436433 0 0 Z " fill="#092A5A" transform="translate(687,450)"/>
</svg>
